<svg width="27" height="30" viewBox="0 0 27 30" fill="none" xmlns="http://www.w3.org/2000/svg">
<path d="M21.7719 18.7331C19.9267 18.7331 18.3017 19.7685 17.371 21.3284L10.0478 17.1823C10.3107 16.5108 10.4561 15.7734 10.4561 15.0001C10.4561 14.2268 10.3107 13.4894 10.0478 12.8179L17.371 8.67174C18.3018 10.2316 19.9267 11.267 21.7719 11.267C24.6547 11.267 27 8.73987 27 5.63361C27 2.52716 24.6547 0 21.7719 0C18.8891 0 16.5438 2.52716 16.5438 5.63348C16.5438 6.40684 16.6893 7.14419 16.9521 7.81568L9.62889 11.9618C8.69816 10.4019 7.07324 9.36652 5.22805 9.36652C2.34531 9.36652 0 11.8937 0 15C0 18.1063 2.34531 20.6335 5.22805 20.6335C7.07324 20.6335 8.69822 19.5981 9.62889 18.0382L16.9521 22.1843C16.6893 22.8558 16.5438 23.5932 16.5438 24.3665C16.5438 27.4728 18.8891 30 21.7719 30C24.6547 30 27 27.4728 27 24.3665C27 21.2603 24.6547 18.7331 21.7719 18.7331ZM21.7719 0.967742C24.1595 0.967742 26.1019 3.06077 26.1019 5.63348C26.1019 8.20613 24.1595 10.2992 21.7719 10.2992C19.3843 10.2992 17.4419 8.20613 17.4419 5.63348C17.4419 3.06077 19.3843 0.967742 21.7719 0.967742ZM5.22799 19.6657C2.84047 19.6657 0.898046 17.5727 0.898046 15C0.898046 12.4273 2.84047 10.3343 5.22799 10.3343C7.61552 10.3343 9.55794 12.4273 9.55794 15C9.55794 17.5727 7.61552 19.6657 5.22799 19.6657ZM21.7719 29.0323C19.3843 29.0323 17.4419 26.9392 17.4419 24.3665C17.4419 21.7939 19.3843 19.7008 21.7719 19.7008C24.1595 19.7008 26.1019 21.7939 26.1019 24.3665C26.1019 26.9392 24.1595 29.0323 21.7719 29.0323Z" fill="#000218"/>
</svg>
